<svg id="svg1936" xmlns="http://www.w3.org/2000/svg" viewBox="0 0 1113.65 300.51"><defs><style>.cls-1{fill:#f90;}.cls-1,.cls-2{fill-rule:evenodd;}</style></defs><path id="path8" class="cls-1" d="M734.17,235.7c-58.1,42.8-142.3,65.7-214.9,65.7-101.7,0-193.2-37.6-262.5-100.2-5.4-4.9-.6-11.6,6-7.8,74.7,43.5,167.1,69.6,262.6,69.6,64.4,0,135.2-13.3,200.3-41,9.9-4.1,18.1,6.5,8.5,13.7" transform="translate(-0.22 -0.89)"/><path id="path10" class="cls-1" d="M758.27,208c-7.4-9.5-49.1-4.5-67.8-2.3-5.7.7-6.6-4.3-1.4-7.8,33.2-23.4,87.7-16.6,94.1-8.8s-1.7,62.5-32.9,88.6c-4.8,4-9.4,1.9-7.2-3.4,7-17.5,22.7-56.7,15.2-66.3" transform="translate(-0.22 -0.89)"/><path id="path12" class="cls-2" d="M691.77,32.9V10.2a5.57,5.57,0,0,1,5.7-5.7h101.7a5.68,5.68,0,0,1,5.9,5.7V29.7c0,3.3-2.8,7.5-7.7,14.3l-52.7,75.3c19.6-.5,40.3,2.4,58,12.4a10.42,10.42,0,0,1,5.4,8.8v24.2c0,3.3-3.7,7.2-7.5,5.2-31.3-16.4-72.9-18.2-107.5.2-3.5,1.9-7.2-1.9-7.2-5.2v-23c0-3.7,0-10,3.7-15.6l61.1-87.6h-53.1a5.74,5.74,0,0,1-5.8-5.8" transform="translate(-0.22 -0.89)"/><path id="path14" class="cls-2" d="M325.17,174.1h-30.9a5.73,5.73,0,0,1-5.5-5.3V10a5.83,5.83,0,0,1,6-5.7h28.9a5.75,5.75,0,0,1,5.6,5.3V30.4h.6c7.5-20.1,21.7-29.4,40.7-29.4,19.4,0,31.5,9.4,40.2,29.4,7.5-20.1,24.5-29.4,42.7-29.4,13,0,27.2,5.4,35.8,17.4,9.8,13.4,7.8,32.8,7.8,49.8V168.4a5.83,5.83,0,0,1-6,5.7h-30.9a5.88,5.88,0,0,1-5.6-5.7V84.2c0-6.7.6-23.4-.9-29.8-2.3-10.7-9.2-13.7-18.2-13.7-7.5,0-15.3,5-18.5,13s-2.9,21.4-2.9,30.4v84.2a5.83,5.83,0,0,1-6,5.7h-30.9a5.88,5.88,0,0,1-5.6-5.7V84.1c0-17.7,2.9-43.8-19.1-43.8-22.2,0-21.4,25.4-21.4,43.8v84.2a5.76,5.76,0,0,1-5.9,5.8" transform="translate(-0.22 -0.89)"/><path id="path16" class="cls-2" d="M892.67,1.5c46,0,70.8,39.5,70.8,89.6,0,48.4-27.5,86.9-70.8,86.9-45.1,0-69.6-39.4-69.6-88.6,0-49.4,24.9-87.9,69.6-87.9M893,34c-22.8,0-24.2,31.1-24.2,50.5s-.3,60.9,24,60.9c24,0,25.1-33.4,25.1-53.8,0-13.4-.6-29.4-4.6-42.1C909.77,38.3,902.77,34,893,34" transform="translate(-0.22 -0.89)"/><path id="path18" class="cls-2" d="M1023.07,174.7h-30.8a5.88,5.88,0,0,1-5.6-5.7V10.1a5.9,5.9,0,0,1,6-5.2h28.7a5.9,5.9,0,0,1,5.5,4.4V33.6h.6c8.7-21.7,20.8-32.1,42.2-32.1,13.9,0,27.4,5,36.1,18.7,8.1,12.7,8.1,34.1,8.1,49.4v100a5.89,5.89,0,0,1-6,5h-31a5.88,5.88,0,0,1-5.5-5V83.4c0-17.4,2-42.8-19.4-42.8-7.5,0-14.5,5-17.9,12.7-4.4,9.7-4.9,19.4-4.9,30.1v85.5a6.07,6.07,0,0,1-6.1,5.8" transform="translate(-0.22 -0.89)"/><path id="path16-2" data-name="path16" class="cls-2" d="M601.17,1.4C647.07,1.4,672,40.8,672,91c0,48.4-27.5,86.9-70.8,86.9-45.1,0-69.6-39.4-69.6-88.6,0-49.5,24.8-87.9,69.6-87.9m.3,32.4c-22.8,0-24.2,31.1-24.2,50.5s-.3,60.9,24,60.9c24,0,25.1-33.4,25.1-53.8,0-13.4-.6-29.4-4.6-42.1-3.6-11.2-10.5-15.5-20.3-15.5" transform="translate(-0.22 -0.89)"/><path id="path16-3" data-name="path16" class="cls-2" d="M183.64,1.5c45.9,0,70.8,39.4,70.8,89.6,0,48.4-27.5,86.9-70.8,86.9-45.1,0-69.6-39.4-69.6-88.6,0-49.4,24.8-87.9,69.6-87.9m.3,32.5c-22.8,0-24.2,31-24.2,50.4s-.3,60.9,24,60.9c24,0,25.1-33.4,25.1-53.8,0-13.4-.6-29.4-4.6-42.1-3.5-11.1-10.5-15.4-20.3-15.4" transform="translate(-0.22 -0.89)"/><path d="M89.07,174.11q-1.26.69-6.15,1.15c-3.26.3-6.91.45-11,.45q-7.49,0-14.78-.57a78.29,78.29,0,0,1-12-1.73,30.29,30.29,0,0,1-16.84-10.18,27.71,27.71,0,0,1-6.49-18.35V72.15H.22V41.35H22.75l3-37.71L59,.89V41.35H87.12v30.8H59v59.77a13.89,13.89,0,0,0,1.66,7,11.09,11.09,0,0,0,5.12,4.54,7.41,7.41,0,0,0,2.35.8,15.47,15.47,0,0,0,2.59.23h3.79l14.6,1.14Z" transform="translate(-0.22 -0.89)"/></svg>